<?xml version="1.0" encoding="iso-8859-1"?>
<!-- Generator: Adobe Illustrator 19.0.0, SVG Export Plug-In . SVG Version: 6.00 Build 0)  -->
<svg version="1.1" id="Capa_1" xmlns="http://www.w3.org/2000/svg" xmlns:xlink="http://www.w3.org/1999/xlink" x="0px" y="0px"
	 viewBox="0 0 512 512" style="enable-background:new 0 0 512 512;" xml:space="preserve">
<polyline style="fill:#FEB500;" points="304.388,89.293 304.388,338.401 207.608,337.877 207.608,93.011 "/>
<polygon style="fill:#785749;" points="327.907,270.951 289.543,250.813 258.297,283.361 195.741,250.776 44.924,512 467.076,512 
	"/>
<polyline style="fill:#4D2D32;" points="381.566,512 289.543,250.813 258.297,283.361 256.46,512 "/>
<path style="fill:#C0C4CF;" d="M413.679,119.043c0,5.477-1.139,10.682-3.209,15.407c-5.164,11.822-16.097,20.539-29.236,22.619
	c0.105,1.139,0.167,2.3,0.167,3.47c0,21.26-17.236,38.496-38.507,38.496c-19.201,0-35.131-14.069-38.026-32.455l-97.982,1.38
	c-3.449,17.706-19.055,31.075-37.786,31.075c-21.26,0-38.507-17.236-38.507-38.496c0-1.171,0.063-2.331,0.167-3.47
	c-13.139-2.08-24.072-10.797-29.236-22.619c-2.07-4.725-3.209-9.93-3.209-15.407c0-14.644,8.163-27.365,20.184-33.866
	c1.171-0.638,2.373-1.212,3.617-1.725c-0.732-1.631-1.38-3.313-1.944-5.038c-1.568-4.85-2.425-10.024-2.425-15.407
	c0-27.605,22.379-49.984,49.984-49.984c10.452,0,20.163,3.209,28.18,8.696C200.041,9.115,211.894,0,225.879,0
	c14.163,0,26.152,9.345,30.124,22.212C259.975,9.345,271.954,0,286.127,0c13.985,0,25.839,9.115,29.957,21.72
	c8.027-5.488,17.727-8.696,28.18-8.696c27.605,0,49.984,22.379,49.984,49.984c0,5.373-0.857,10.547-2.435,15.396
	c-0.554,1.725-1.202,3.408-1.934,5.049c1.244,0.512,2.446,1.087,3.617,1.725C405.515,91.679,413.679,104.399,413.679,119.043z"/>
<path style="fill:#E4E8F1;" d="M381.234,157.069c0.105,1.139,0.167,2.3,0.167,3.47c0,21.26-17.236,38.496-38.507,38.496
	c-19.201,0-35.131-14.069-38.026-32.455l-38.413,0.541l-59.569,0.839c-3.449,17.706-19.055,31.075-37.786,31.075
	c-21.26,0-38.507-17.236-38.507-38.496c0-1.171,0.063-2.331,0.167-3.47c-18.386-2.906-32.445-18.825-32.445-38.026
	c0-16.065,9.836-29.821,23.8-35.591c-0.732-1.631-1.38-3.313-1.944-5.038c6.501-20.058,25.337-34.556,47.559-34.556
	c10.452,0,20.163,3.209,28.18,8.696c4.129-12.606,15.982-21.72,29.967-21.72c14.163,0,26.152,9.345,30.124,22.212
	c3.972-12.867,15.951-22.212,30.124-22.212c13.985,0,25.839,9.115,29.957,21.72c8.027-5.488,17.727-8.696,28.18-8.696
	c22.222,0,41.047,14.498,47.548,34.545c-0.554,1.725-1.202,3.408-1.934,5.049c13.975,5.77,23.8,19.525,23.8,35.591
	C413.679,138.244,399.62,154.164,381.234,157.069z"/>
<polyline style="fill:#4D2D32;" points="166.267,379.335 195.741,250.776 44.924,512 130.208,512 "/>
<g>
	<polyline style="fill:#FEB500;" points="207.574,175.822 207.574,167.961 223.6,160.641 234.053,137.123 265.933,140.259 
		277.05,154.75 304.868,166.581 304.388,187.295 	"/>
	<path style="fill:#FEB500;" d="M186.408,146.819c3.328,5.506,6.902,8.646,10.548,10.618c3.647,1.941,7.109,2.693,10.618,2.709
		c3.508-0.036,6.961-0.785,10.602-2.725c3.639-1.97,7.215-5.096,10.563-10.602c1.714,2.778,2.274,6.172,1.946,9.576
		c-0.357,3.398-1.663,6.819-3.782,9.755c-2.108,2.947-5.018,5.412-8.381,7.097c-3.358,1.692-7.172,2.582-10.95,2.577
		c-3.778-0.004-7.588-0.896-10.944-2.591c-3.36-1.685-6.264-4.155-8.37-7.098c-2.116-2.935-3.419-6.352-3.779-9.747
		C184.15,152.987,184.706,149.597,186.408,146.819z"/>
	<path style="fill:#FEB500;" d="M167.469,99.445c-1.92,7.788-1.538,13.705-0.062,18.658c1.504,4.926,3.893,8.639,6.971,11.748
		c3.123,3.06,6.828,5.444,11.748,6.943c4.944,1.471,10.852,1.868,18.658-0.033c-0.939,3.96-3.436,7.445-6.725,10.157
		c-3.311,2.68-7.477,4.545-11.933,5.266c-4.456,0.739-9.194,0.347-13.644-1.131c-4.453-1.469-8.598-4.047-11.923-7.382
		c-3.326-3.333-5.899-7.479-7.363-11.93c-1.477-4.448-1.859-9.184-1.122-13.636c0.722-4.452,2.586-8.614,5.261-11.923
		C160.04,102.891,163.518,100.393,167.469,99.445z"/>
	<path style="fill:#FEB500;" d="M268.715,130.282c3.316,9.475,8.518,16.552,14.98,21.32c6.444,4.758,13.842,7.138,21.32,7.142
		c7.477-0.022,14.867-2.401,21.304-7.158c6.455-4.766,11.661-11.829,14.996-21.304c1.71,4.76,1.881,10.134,0.793,15.366
		c-1.1,5.242-3.567,10.307-7.062,14.666c-3.51,4.347-8.098,7.934-13.291,10.377c-5.189,2.452-10.982,3.73-16.742,3.728
		c-5.758-0.008-11.55-1.289-16.735-3.744c-5.192-2.442-9.772-6.034-13.281-10.378c-3.492-4.357-5.956-9.42-7.06-14.658
		C266.85,140.412,267.016,135.042,268.715,130.282z"/>
	<path style="fill:#FEB500;" d="M214.899,105.231c3.316,9.475,8.518,16.551,14.98,21.32c6.444,4.758,13.842,7.138,21.32,7.142
		c7.477-0.022,14.867-2.401,21.304-7.158c6.455-4.766,11.661-11.829,14.996-21.304c1.71,4.76,1.881,10.134,0.793,15.366
		c-1.1,5.242-3.567,10.307-7.062,14.666c-3.51,4.347-8.098,7.934-13.291,10.377c-5.189,2.452-10.982,3.73-16.742,3.728
		c-5.758-0.008-11.55-1.289-16.735-3.744c-5.192-2.442-9.772-6.034-13.281-10.378c-3.492-4.357-5.956-9.42-7.06-14.658
		C213.033,115.361,213.199,109.991,214.899,105.231z"/>
</g>
<path style="fill:#FC8300;" d="M247.792,251.3c-4.329,0-7.839-3.51-7.839-7.839v-61.144c0-4.329,3.51-7.839,7.839-7.839
	c4.329,0,7.839,3.51,7.839,7.839v61.144C255.631,247.79,252.121,251.3,247.792,251.3z"/>
<g>
	<path style="fill:#FEB500;" d="M393.133,270.835c-4.329,0-7.839-3.51-7.839-7.839c0-16.425-13.362-29.787-29.789-29.787
		c-7.956,0-15.437,3.098-21.063,8.725c-3.062,3.062-8.025,3.062-11.086,0c-3.061-3.062-3.061-8.025,0-11.086
		c8.587-8.588,20.005-13.316,32.149-13.316c25.07,0,45.467,20.396,45.467,45.466C400.973,267.325,397.464,270.835,393.133,270.835z"
		/>
	<path style="fill:#FEB500;" d="M113.533,270.835c-4.329,0-7.839-3.51-7.839-7.839c0-25.07,20.396-45.466,45.466-45.466
		c12.145,0,23.562,4.729,32.15,13.316c3.062,3.062,3.062,8.025,0,11.086c-3.062,3.062-8.025,3.062-11.086,0
		c-5.627-5.626-13.106-8.725-21.063-8.725c-16.425,0-29.787,13.362-29.787,29.787C121.372,267.325,117.862,270.835,113.533,270.835z
		"/>
</g>
<g>
	<path style="fill:#FC8300;" d="M393.129,300.945c-7.09,0-10.525-9.177-5.086-13.798c5.515-4.685,14.249,0.33,12.779,7.495
		C400.079,298.266,396.837,300.945,393.129,300.945z"/>
	<path style="fill:#FC8300;" d="M113.536,300.945c-3.355,0-6.385-2.204-7.443-5.378c-1.081-3.242,0.147-6.94,2.958-8.887
		c5.831-4.038,13.834,1.453,12.082,8.335C120.257,298.452,117.09,300.945,113.536,300.945z"/>
</g>
<g>
</g>
<g>
</g>
<g>
</g>
<g>
</g>
<g>
</g>
<g>
</g>
<g>
</g>
<g>
</g>
<g>
</g>
<g>
</g>
<g>
</g>
<g>
</g>
<g>
</g>
<g>
</g>
<g>
</g>
</svg>
